<?xml version="1.0" encoding="UTF-8"?>
<svg width="219px" height="243px" viewBox="0 0 219 243" version="1.1" xmlns="http://www.w3.org/2000/svg" xmlns:xlink="http://www.w3.org/1999/xlink">
    <!-- Generator: Sketch 53.2 (72643) - https://sketchapp.com -->
    <title>分享</title>
    <desc>Created with Sketch.</desc>
    <g id="M06_H5端" stroke="none" stroke-width="1" fill="none" fill-rule="evenodd">
        <g id="M09_H5端直播观看页_红包雨推送有口令调整-Copy" transform="translate(-448.000000, -111.000000)" fill="#FFFFFF" fill-rule="nonzero">
            <g id="分享" transform="translate(448.000000, 110.000000)">
                <path d="M210.775232,5.87313098 L166.27196,11.9814232 C165.17765,12.1316225 164.168776,11.3662698 164.018577,10.27196 C163.868377,9.17765025 164.63373,8.16877622 165.72804,8.01857684 L216.72804,1.01857684 C218.074593,0.83375589 219.209337,2.01704815 218.968299,3.35468175 L218.940018,3.51162546 C219.08033,4.06905951 218.97232,4.66296858 218.647525,5.13481009 L209.968299,53.2999942 C209.772414,54.3870558 208.73238,55.1094968 207.645318,54.9136115 C206.558257,54.7177262 205.835816,53.6776923 206.031701,52.5906308 L213.97567,8.50574299 C178.35424,33.680384 144.260286,75.6075787 111.738416,134.302832 C109.12115,139.026456 106.940311,143.604838 105.181394,148.025777 C124.803116,145.390501 140.366021,151.460751 147.9162,166.469888 C156.793605,184.117442 157.361671,198.332483 150.5844,207.302664 C144.570433,215.262558 133.401414,217.834029 122.304166,214.369597 C110.739099,210.759117 101.305338,201.354514 97.4726388,188.333982 C94.4869005,178.190764 94.9256497,166.359049 99.0913107,153.192251 C98.7921191,153.260097 98.4919871,153.329895 98.1909265,153.401648 C77.3107241,158.378053 54.6850681,172.275046 38.3142947,190.436195 C24.4114182,205.859548 12.9116144,223.327096 3.81270306,242.845049 C3.34599544,243.846177 2.15607936,244.279411 1.15495111,243.812703 C0.153822854,243.345995 -0.279410672,242.156079 0.187296943,241.154951 C9.45254155,221.280199 21.171907,203.479149 35.3432128,187.758011 C52.2431431,169.009834 75.5733681,154.680084 97.2635753,149.51063 C98.3889716,149.242413 99.5038197,149.000041 100.607477,148.783553 C102.566415,143.502888 105.104364,138.022655 108.239598,132.364207 C140.758905,73.6735762 174.922949,31.5048476 210.775232,5.87313098 Z M101.309851,187.204468 C104.761051,198.928965 113.192932,207.334783 123.496182,210.551338 C133.092639,213.547241 142.487284,211.384288 147.392896,204.891376 C153.107325,197.32794 152.602132,184.68621 144.342845,168.267424 C137.407241,154.48001 122.679477,149.144143 103.592436,152.306844 C99.0251207,165.585058 98.4049706,177.335942 101.309851,187.204468 Z"></path>
            </g>
        </g>
    </g>
</svg>