<?xml version="1.0" standalone="no"?><!DOCTYPE svg PUBLIC "-//W3C//DTD SVG 1.1//EN" "http://www.w3.org/Graphics/SVG/1.1/DTD/svg11.dtd"><svg class="icon" width="200px" height="200.00px" viewBox="0 0 1024 1024" version="1.1" xmlns="http://www.w3.org/2000/svg"><path d="M204.8 0h614.4c112.64 0 204.8 92.16 204.8 204.8v614.4c0 112.64-92.16 204.8-204.8 204.8H204.8c-112.64 0-204.8-92.16-204.8-204.8V204.8C0 92.16 92.16 0 204.8 0z" fill="#FC6420" /><path d="M229.262222 405.617778l-36.977778 57.457778L261.688889 506.311111s44.942222 24.462222 24.462222 67.697778c-20.48 43.235556-120.604444 135.395556-120.604444 135.395555l90.453333 56.32c61.44-135.395556 57.457778-118.897778 73.955556-167.822222 16.497778-48.924444 20.48-88.177778-7.964445-114.915555-37.546667-36.408889-41.528889-38.684444-92.728889-77.368889z m47.217778-22.755556C309.475556 382.862222 335.644444 358.4 335.644444 329.955556s-26.737778-53.475556-59.164444-53.475556-59.164444 24.462222-59.164444 53.475556c1.706667 28.444444 28.444444 52.906667 59.164444 52.906666z m532.48 6.257778s-20.48-153.6-350.435556-59.164444c14.222222-24.462222 20.48-40.96 20.48-40.96l-81.92-24.462223S364.088889 374.897778 304.924444 426.097778l57.457778 32.995555c16.497778-16.497778 30.72-34.702222 43.235556-51.2 12.515556-6.257778 26.737778-12.515556 38.684444-16.497777-16.497778 28.444444-38.684444 69.404444-65.422222 96.142222l34.702222 30.72s24.462222-22.755556 48.924445-51.2h28.444444v51.2H376.604444v40.96h114.915556v98.417778h-3.982222c-12.515556 0-32.995556-2.275556-40.96-14.222223-10.24-14.222222-2.275556-43.235556-2.275556-59.164444h-79.644444l-2.275556 2.275555s-28.444444 133.12 84.195556 129.137778c106.382222 2.275556 166.115556-30.72 194.56-53.475555l12.515555 43.235555 65.422223-28.444444-44.942223-110.364445-53.475555 16.497778 10.24 36.977778c-14.222222 10.24-28.444444 18.204444-44.942222 24.462222V556.942222h112.64v-40.96H585.955556v-44.942222h112.64v-40.96H497.777778c14.222222-18.204444 26.737778-34.702222 28.444444-44.942222l-34.702222-10.24c149.617778-55.182222 233.244444-44.942222 233.244444 44.942222v235.52s7.964444 79.644444-81.92 75.662222l-48.924444-10.24-12.515556 47.217778s212.764444 61.44 229.262223-104.675556c18.773333-167.822222-1.706667-274.204444-1.706667-274.204444z" fill="#FFFFFF" /></svg>